<?xml version="1.0" encoding="UTF-8" standalone="no"?>
<svg
   xmlns:dc="http://purl.org/dc/elements/1.1/"
   xmlns:cc="http://creativecommons.org/ns#"
   xmlns:rdf="http://www.w3.org/1999/02/22-rdf-syntax-ns#"
   xmlns:svg="http://www.w3.org/2000/svg"
   xmlns="http://www.w3.org/2000/svg"
   xmlns:sodipodi="http://sodipodi.sourceforge.net/DTD/sodipodi-0.dtd"
   xmlns:inkscape="http://www.inkscape.org/namespaces/inkscape"
   inkscape:export-ydpi="300"
   inkscape:export-xdpi="300"
   inkscape:version="1.0 (4035a4f, 2020-05-01)"
   sodipodi:docname="icon.svg"
   version="1.1"
   width="100"
   viewBox="0 0 29.296875 29.296875"
   height="100"
   enable-background="new 0 0 150 150"
   id="Layer_1">
  <metadata
     id="metadata858">
    <rdf:RDF>
      <cc:Work
         rdf:about="">
        <dc:format>image/svg+xml</dc:format>
        <dc:type
           rdf:resource="http://purl.org/dc/dcmitype/StillImage" />
        <dc:title></dc:title>
      </cc:Work>
    </rdf:RDF>
  </metadata>
  <defs
     id="defs856" />
  <sodipodi:namedview
     inkscape:pagecheckerboard="false"
     inkscape:current-layer="layer2"
     inkscape:window-maximized="0"
     inkscape:window-y="1"
     inkscape:window-x="0"
     inkscape:cy="29.394293"
     inkscape:cx="-42.837137"
     inkscape:zoom="1.5174175"
     showgrid="false"
     id="namedview854"
     inkscape:window-height="772"
     inkscape:window-width="1280"
     inkscape:pageshadow="2"
     inkscape:pageopacity="1"
     guidetolerance="10"
     gridtolerance="10"
     objecttolerance="10"
     borderopacity="1"
     bordercolor="#666666"
     pagecolor="#ffffff"
     inkscape:document-rotation="0" />
  <g
     inkscape:groupmode="layer"
     id="layer3"
     inkscape:label="edges 1"
     style="display:inline">
    <path
       sodipodi:nodetypes="cc"
       style="display:inline;fill:none;stroke:#d9d9d9;stroke-width:1.17188;stroke-linecap:butt;stroke-linejoin:miter;stroke-miterlimit:4;stroke-dasharray:none;stroke-opacity:1"
       d="M 7.6119025,23.462964 14.142831,15.135167"
       id="path889-6-4-8-8" />
    <path
       id="path889-6-4-8-8-3"
       d="M 26.041547,17.668126 10.549093,5.3906071"
       style="display:inline;fill:none;stroke:#d9d9d9;stroke-width:1.17188;stroke-linecap:butt;stroke-linejoin:miter;stroke-miterlimit:4;stroke-dasharray:none;stroke-opacity:1"
       sodipodi:nodetypes="cc" />
    <path
       sodipodi:nodetypes="cc"
       style="display:inline;fill:none;stroke:#d9d9d9;stroke-width:0.878906;stroke-linecap:butt;stroke-linejoin:miter;stroke-miterlimit:4;stroke-dasharray:none;stroke-opacity:1"
       d="M 18.569153,25.01273 21.537638,7.7403592"
       id="path889-6-4-8-8-3-8" />
    <path
       id="path889-6-4-8-8-5"
       d="M 7.6119025,23.462964 26.041547,17.668126"
       style="display:inline;fill:none;stroke:#e5e5e5;stroke-width:0.878906;stroke-linecap:butt;stroke-linejoin:miter;stroke-miterlimit:4;stroke-dasharray:none;stroke-opacity:1"
       sodipodi:nodetypes="cc" />
  </g>
  <g
     inkscape:groupmode="layer"
     id="layer2"
     inkscape:label="edges"
     style="display:inline">
    <path
       style="fill:none;stroke:#b2b2b2;stroke-width:1.46484;stroke-linecap:butt;stroke-linejoin:miter;stroke-miterlimit:4;stroke-dasharray:none;stroke-opacity:1"
       d="M 3.6380573,12.923635 10.549093,5.3906071"
       id="path889"
       sodipodi:nodetypes="cc" />
    <path
       id="path889-6"
       d="M 14.142831,15.135167 21.537638,7.7403592"
       style="display:inline;fill:none;stroke:#bfbfbf;stroke-width:1.46484;stroke-linecap:butt;stroke-linejoin:miter;stroke-miterlimit:4;stroke-dasharray:none;stroke-opacity:1"
       sodipodi:nodetypes="cc" />
    <path
       sodipodi:nodetypes="cc"
       style="display:inline;fill:none;stroke:#bfbfbf;stroke-width:1.46484;stroke-linecap:butt;stroke-linejoin:miter;stroke-miterlimit:4;stroke-dasharray:none;stroke-opacity:1"
       d="m 14.142831,15.135167 11.898716,2.532959"
       id="path889-6-9" />
    <path
       sodipodi:nodetypes="cc"
       style="display:inline;fill:none;stroke:#d9d9d9;stroke-width:1.17188;stroke-linecap:butt;stroke-linejoin:miter;stroke-miterlimit:4;stroke-dasharray:none;stroke-opacity:1"
       d="m 14.315607,15.377053 4.253546,9.635677"
       id="path889-6-4" />
    <path
       sodipodi:nodetypes="cc"
       style="display:inline;fill:none;stroke:#d9d9d9;stroke-width:1.17188;stroke-linecap:butt;stroke-linejoin:miter;stroke-miterlimit:4;stroke-dasharray:none;stroke-opacity:1"
       d="M 14.142831,15.135167 3.6380573,12.923635"
       id="path889-6-1" />
    <path
       id="path889-6-1-3"
       d="M 14.142831,15.135167 10.549093,5.3906071"
       style="display:inline;fill:none;stroke:#cccccc;stroke-width:1.46484;stroke-linecap:butt;stroke-linejoin:miter;stroke-miterlimit:4;stroke-dasharray:none;stroke-opacity:1"
       sodipodi:nodetypes="cc" />
    <path
       sodipodi:nodetypes="cc"
       style="display:inline;fill:none;stroke:#cccccc;stroke-width:1.17188;stroke-linecap:butt;stroke-linejoin:miter;stroke-miterlimit:4;stroke-dasharray:none;stroke-opacity:1"
       d="M 7.6119025,23.462964 3.6380573,12.923635"
       id="path889-6-1-3-7" />
    <path
       id="path889-6-4-8"
       d="M 10.549093,5.3906071 21.537638,7.7403592"
       style="display:inline;fill:none;stroke:#d9d9d9;stroke-width:1.17188;stroke-linecap:butt;stroke-linejoin:miter;stroke-miterlimit:4;stroke-dasharray:none;stroke-opacity:1"
       sodipodi:nodetypes="cc" />
    <path
       sodipodi:nodetypes="cc"
       style="display:inline;fill:none;stroke:#cccccc;stroke-width:1.17188;stroke-linecap:butt;stroke-linejoin:miter;stroke-miterlimit:4;stroke-dasharray:none;stroke-opacity:1"
       d="M 25.615149,16.033601 21.537638,7.7403592"
       id="path889-6-1-3-3" />
  </g>
  <g
     transform="translate(-0.44209676,3.0946773)"
     id="g851" />
  <g
     inkscape:groupmode="layer"
     id="layer1"
     inkscape:label="nodes"
     style="display:inline">
    <path
       style="opacity:1;fill:#1ca6e6;fill-opacity:1;stroke-width:0.106614"
       id="path841"
       fill="#27a2db"
       d="m 25.990699,14.829888 c -1.456237,-0.0011 -2.637625,1.178509 -2.638691,2.634746 -0.0011,1.456237 1.178509,2.637624 2.634747,2.63869 1.456237,0.0011 2.637624,-1.178509 2.63869,-2.634746 0,-0.0013 0,-0.0027 0,-0.0039 -0.0011,-1.454744 -1.180107,-2.633679 -2.634746,-2.634745 z" />
    <path
       style="fill:#22e6b2;fill-opacity:1;stroke-width:0.161636"
       id="path843"
       fill="#44c4a1"
       d="m 13.456305,11.989827 c -1.456152,0 -2.636719,1.180442 -2.636719,2.636638 0,1.456196 1.180405,2.636799 2.636719,2.636799 1.45615,0 2.636718,-1.180441 2.636718,-2.636637 -0.0016,-1.45555 -1.181215,-2.635184 -2.636718,-2.6368 z" />
    <path
       style="fill:#eb684d;fill-opacity:1;stroke-width:0.143938"
       id="path845"
       fill="#e56353"
       d="M 10.636612,2.5997192 C 9.1803972,2.5982792 7.9986708,3.777559 7.9970875,5.2337738 c -0.00158,1.4562148 1.17784,2.6379409 2.6340555,2.6393803 1.456215,0.00144 2.637941,-1.1778398 2.639381,-2.6340546 0,-8.637e-4 0,-0.00173 0,-0.00274 1.44e-4,-1.45506 -1.178704,-2.6352028 -2.633912,-2.6366422 z" />
    <path
       style="fill:#efce6f;fill-opacity:1;stroke-width:0.111782"
       id="path847"
       fill="#fcd462"
       d="m 3.5353434,9.9002944 c -1.4562189,0 -2.63666392,1.1803816 -2.63666392,2.6366306 0,1.456138 1.18044502,2.636521 2.63677092,2.636521 1.45622,0 2.6366662,-1.180493 2.6366662,-2.63663 0,-6.73e-4 0,-0.0014 0,-0.0023 0,-1.45502 -1.1795512,-2.6345076 -2.6346512,-2.6345076 -6.67e-4,1.07e-4 -0.0016,1.07e-4 -0.0023,1.07e-4 z" />
    <path
       style="fill:#68eeeb;fill-opacity:1;stroke-width:0.143936"
       id="path849"
       fill="#89c5cd"
       d="m 18.198064,22.218105 c -1.456215,-0.0014 -2.637941,1.177804 -2.639381,2.633975 -0.0014,1.456171 1.177841,2.637861 2.634056,2.639445 1.456215,0.0014 2.637941,-1.177805 2.639381,-2.633975 0,-0.0017 0,-0.0036 0,-0.0053 0,-1.454874 -1.17928,-2.634119 -2.634056,-2.634119 z" />
    <path
       d="m 21.470919,5.1343359 c -1.456219,0 -2.636664,1.180382 -2.636664,2.6366306 0,1.456138 1.180445,2.6365205 2.636771,2.6365205 1.45622,0 2.636666,-1.1804925 2.636666,-2.6366295 0,-6.73e-4 0,-0.0014 0,-0.0023 0,-1.4550198 -1.179551,-2.6345078 -2.634651,-2.6345078 -6.68e-4,1.07e-4 -0.0016,1.07e-4 -0.0023,1.07e-4 z"
       fill="#fcd462"
       id="path847-7"
       style="fill:#c86fef;fill-opacity:1;stroke-width:0.111782" />
    <path
       d="m 7.5081823,20.515534 c -1.456219,0 -2.636664,1.180382 -2.636664,2.636631 0,1.456138 1.180445,2.636521 2.636771,2.636521 1.4562198,0 2.6366667,-1.180493 2.6366667,-2.63663 0,-6.73e-4 0,-0.0014 0,-0.0023 0,-1.45502 -1.1795519,-2.634508 -2.6346517,-2.634508 -6.68e-4,1.07e-4 -0.0016,1.07e-4 -0.0023,1.07e-4 z"
       fill="#fcd462"
       id="path847-5"
       style="display:inline;fill:#b3ef6f;fill-opacity:1;stroke-width:0.111782" />
  </g>
</svg>
